<svg xmlns="http://www.w3.org/2000/svg" xmlns:xlink="http://www.w3.org/1999/xlink" version="1.1" width="1000" height="1000" viewBox="0 0 1000 1000" xml:space="preserve">
<desc>Created with Fabric.js 3.5.0</desc>
<defs>
</defs>
<rect x="0" y="0" width="100%" height="100%" fill="#ffffff"/>
<g transform="matrix(37.8788 0 0 37.8788 500.0001 500.0001)" id="841208">
<g style="" vector-effect="non-scaling-stroke">
		<g transform="matrix(1 0 0 1 0 0)">
<path style="stroke: none; stroke-width: 1; stroke-dasharray: none; stroke-linecap: butt; stroke-dashoffset: 0; stroke-linejoin: miter; stroke-miterlimit: 4; is-custom-font: none; font-file-url: none; fill: none; fill-rule: nonzero; opacity: 1;" transform=" translate(-12, -12)" d="M 0 0 h 24 v 24 H 0 z" stroke-linecap="round"/>
</g>
		<g transform="matrix(1 0 0 1 0 0)">
<path style="stroke: none; stroke-width: 1; stroke-dasharray: none; stroke-linecap: butt; stroke-dashoffset: 0; stroke-linejoin: miter; stroke-miterlimit: 4; is-custom-font: none; font-file-url: none; fill: rgb(130,183,206); fill-rule: nonzero; opacity: 1;" transform=" translate(-12, -12)" d="M 21.41 11.58 l -9 -9 C 12.05 2.22 11.55 2 11 2 H 4 c -1.1 0 -2 0.9 -2 2 v 7 c 0 0.55 0.22 1.05 0.59 1.42 l 9 9 c 0.36 0.36 0.86 0.58 1.41 0.58 c 0.55 0 1.05 -0.22 1.41 -0.59 l 7 -7 c 0.37 -0.36 0.59 -0.86 0.59 -1.41 c 0 -0.55 -0.23 -1.06 -0.59 -1.42 z M 5.5 7 C 4.67 7 4 6.33 4 5.5 S 4.67 4 5.5 4 S 7 4.67 7 5.5 S 6.33 7 5.5 7 z" stroke-linecap="round"/>
</g>
</g>
</g>
</svg>